<mxfile host="65bd71144e" modified="2021-03-05T11:05:19.129Z" agent="5.0 (Macintosh; Intel Mac OS X 10_14_2) AppleWebKit/537.36 (KHTML, like Gecko) Code/1.53.2 Chrome/87.0.4280.141 Electron/11.2.1 Safari/537.36" version="14.2.4" etag="E4kYfEDSqGNmBD0oF61-" type="embed">
    <diagram id="Y1w6JsZQ-X2p6TpU3VH1" name="Page-1">
        <mxGraphModel dx="968" dy="680" grid="1" gridSize="10" guides="1" tooltips="1" connect="1" arrows="1" fold="1" page="1" pageScale="1" pageWidth="850" pageHeight="1100" math="0" shadow="0">
            <root>
                <mxCell id="0"/>
                <mxCell id="1" parent="0"/>
                <mxCell id="3" value="&lt;font&gt;&lt;span style=&quot;font-size: 24px&quot;&gt;App (Parent)&lt;/span&gt;&lt;br&gt;&lt;font style=&quot;font-size: 12px&quot;&gt;Functions that call on components&lt;br&gt;&lt;/font&gt;Display (return) - with JSX elements (h1, p, button etc)&amp;nbsp;&lt;br&gt;Reminder to import/export&lt;br&gt;track ID with useState&lt;br&gt;make a function that randomises numbers (ID for each recipe) in that range&lt;br&gt;&lt;/font&gt;" style="text;html=1;strokeColor=none;fillColor=none;align=center;verticalAlign=middle;whiteSpace=wrap;rounded=0;" vertex="1" parent="1">
                    <mxGeometry x="310" y="10" width="220" height="150" as="geometry"/>
                </mxCell>
                <mxCell id="7" value="&lt;font&gt;&lt;span style=&quot;font-size: 24px&quot;&gt;Recipes&lt;/span&gt;&lt;br&gt;&lt;font style=&quot;font-size: 12px&quot;&gt;useEffect to pull data from the back&lt;/font&gt;&lt;br&gt;&lt;/font&gt;" style="text;html=1;strokeColor=none;fillColor=none;align=center;verticalAlign=middle;whiteSpace=wrap;rounded=0;" vertex="1" parent="1">
                    <mxGeometry x="310" y="280" width="220" height="70" as="geometry"/>
                </mxCell>
                <mxCell id="8" value="" style="endArrow=classic;html=1;" edge="1" parent="1" source="3" target="7">
                    <mxGeometry width="50" height="50" relative="1" as="geometry">
                        <mxPoint x="470" y="209" as="sourcePoint"/>
                        <mxPoint x="530" y="269" as="targetPoint"/>
                    </mxGeometry>
                </mxCell>
                <mxCell id="9" style="edgeStyle=orthogonalEdgeStyle;rounded=0;orthogonalLoop=1;jettySize=auto;html=1;" edge="1" parent="1" source="7" target="7">
                    <mxGeometry relative="1" as="geometry"/>
                </mxCell>
            </root>
        </mxGraphModel>
    </diagram>
</mxfile>